<svg xmlns="http://www.w3.org/2000/svg" viewBox="0 0 64 64">
  <defs>
    <linearGradient id="bg" x1="0" y1="0" x2="0" y2="1">
      <stop offset="0%" stop-color="#1e2436"/>
      <stop offset="100%" stop-color="#11141f"/>
    </linearGradient>
    <linearGradient id="gold" x1="0" y1="0" x2="0" y2="1">
      <stop offset="0%" stop-color="#f5d98a"/>
      <stop offset="100%" stop-color="#c9992f"/>
    </linearGradient>
  </defs>
  <rect width="64" height="64" rx="12" fill="url(#bg)"/>
  <path fill="url(#gold)" stroke="#7a5a15" stroke-width="1"
    d="M20 47h24l-1.5-5h-21l-1.5 5z
       M22.5 42
       c-1-3 0-6 2-8
       c1.5-1.6 2-3 1.2-4.6
       c-1-2 0.5-4 2.5-3.6
       c1 0.2 1.7-0.4 1.6-1.3
       c-0.3-2.6 1.2-5 3.6-6.4
       c3.4-2 7.6-1.7 10.5 0.9
       c2.6 2.3 3.6 6 2.6 9.3
       c-0.6 2-2.1 3.6-2 5.7
       c0.1 2.4 1.6 4.4 1.6 8h-23.6z"/>
  <circle cx="35" cy="24" r="1.4" fill="#1e2436"/>
</svg>
